<svg width="309" height="73" viewBox="0 0 309 73" fill="none" xmlns="http://www.w3.org/2000/svg">
<path d="M1.712 72C0.752 72 0.272 71.68 0.272 71.04C0.272 70.4 0.72 69.984 1.616 69.792L3.056 69.504C4.336 69.248 5.296 68.64 5.936 67.68C6.576 66.656 7.12 65.248 7.568 63.456L22.448 3.456C22.576 2.816 22.768 2.4 23.024 2.20799C23.344 2.016 23.632 1.92 23.888 1.92C24.208 1.92 24.496 2.016 24.752 2.20799C25.072 2.4 25.296 2.816 25.424 3.456L40.592 64.32C41.04 66.112 41.552 67.36 42.128 68.064C42.704 68.768 43.6 69.248 44.816 69.504L46.256 69.792C47.152 69.984 47.6 70.4 47.6 71.04C47.6 71.68 47.12 72 46.16 72H29.744C28.848 72 28.4 71.648 28.4 70.944C28.4 70.24 28.944 69.856 30.032 69.792L31.856 69.6C32.944 69.472 33.616 69.12 33.872 68.544C34.192 67.968 34.192 66.976 33.872 65.568L30.224 50.688C29.84 49.024 28.784 48.192 27.056 48.192H16.976C15.312 48.192 14.256 49.024 13.808 50.688L10.544 63.552C9.584 67.2 10.544 69.216 13.424 69.6L14.864 69.792C15.952 69.984 16.496 70.368 16.496 70.944C16.496 71.648 16.048 72 15.152 72H1.712ZM16.688 45.312H27.248C28.272 45.312 28.688 44.768 28.496 43.68L22.352 17.952H21.872L15.44 43.68C15.248 44.768 15.664 45.312 16.688 45.312ZM59.507 72.864C55.987 72.864 53.075 71.424 50.771 68.544C48.467 65.6 47.315 61.856 47.315 57.312C47.315 53.024 47.987 48.832 49.331 44.736C50.739 40.576 52.595 36.832 54.899 33.504C57.267 30.112 59.859 27.424 62.675 25.44C65.555 23.456 68.435 22.464 71.315 22.464C74.387 22.464 76.979 23.296 79.091 24.96C79.411 25.216 79.603 25.44 79.667 25.632C79.731 25.76 79.699 26.08 79.571 26.592L76.979 39.168C76.787 40.064 76.371 40.512 75.731 40.512C75.027 40.512 74.611 40.032 74.483 39.072L74.003 32.256C73.811 29.312 73.363 27.392 72.659 26.496C72.019 25.6 71.059 25.152 69.779 25.152C67.987 25.152 66.163 26.048 64.307 27.84C62.451 29.568 60.723 31.936 59.123 34.944C57.587 37.888 56.339 41.184 55.379 44.832C54.483 48.416 54.035 52.064 54.035 55.776C54.035 63.84 56.659 67.872 61.907 67.872C64.403 67.872 66.643 66.72 68.627 64.416C70.675 62.112 72.563 58.528 74.291 53.664C74.483 53.024 74.931 52.704 75.635 52.704C76.019 52.704 76.243 52.864 76.307 53.184C76.371 53.44 76.307 53.984 76.115 54.816C75.475 58.336 74.323 61.44 72.659 64.128C70.995 66.816 69.011 68.96 66.707 70.56C64.467 72.096 62.067 72.864 59.507 72.864ZM89.3233 72.864C87.1473 72.864 85.4513 72 84.2353 70.272C83.0193 68.544 82.8273 65.76 83.6593 61.92L91.6273 27.168C91.8193 26.208 91.4353 25.728 90.4753 25.728H86.8273C85.9313 25.728 85.4833 25.312 85.4833 24.48C85.4833 24.032 85.6433 23.68 85.9633 23.424C86.2833 23.168 86.6673 23.04 87.1153 23.04H90.5713C92.0433 23.04 92.9073 22.368 93.1633 21.024L95.4673 10.752C95.6593 10.048 96.1073 9.696 96.8113 9.696H100.747C101.643 9.696 101.995 10.112 101.803 10.944L99.4033 21.6C99.2113 22.56 99.5953 23.04 100.555 23.04H106.027C107.115 23.04 107.659 23.456 107.659 24.288C107.659 25.248 106.987 25.728 105.643 25.728H100.459C99.0513 25.728 98.1873 26.4 97.8673 27.744L89.8033 62.88C89.4833 64.288 89.5153 65.408 89.8993 66.24C90.3473 67.008 91.0833 67.392 92.1073 67.392C93.5793 67.392 94.9233 66.56 96.1393 64.896C97.4193 63.232 98.7633 60.064 100.171 55.392C100.427 54.56 100.843 54.144 101.419 54.144C101.867 54.144 102.155 54.336 102.283 54.72C102.411 55.104 102.315 55.808 101.995 56.832C100.779 61.184 99.4353 64.512 97.9633 66.816C96.5553 69.12 95.1153 70.72 93.6432 71.616C92.1713 72.448 90.7313 72.864 89.3233 72.864ZM163.184 72.864C162.16 72.864 161.296 72.096 160.592 70.56L134.576 14.112C134.384 13.664 134.128 13.472 133.808 13.536C133.552 13.6 133.424 13.888 133.424 14.4V63.744C133.424 65.536 133.712 66.912 134.288 67.872C134.928 68.768 136.048 69.344 137.648 69.6L138.896 69.792C139.728 69.856 140.144 70.24 140.144 70.944C140.144 71.648 139.664 72 138.704 72H124.976C124.016 72 123.536 71.648 123.536 70.944C123.536 70.24 123.952 69.856 124.784 69.792L126.032 69.6C127.696 69.344 128.848 68.768 129.488 67.872C130.128 66.912 130.448 65.536 130.448 63.744V9.216C130.448 7.872 130.224 6.976 129.776 6.528C129.392 6.08 128.464 5.728 126.992 5.472L124.784 5.088C123.952 4.896 123.536 4.512 123.536 3.936C123.536 3.232 124.016 2.88 124.976 2.88H135.248C136.848 2.88 137.968 3.584 138.608 4.992L161.264 54.816C161.456 55.2 161.68 55.36 161.936 55.296C162.256 55.232 162.416 55.008 162.416 54.624V11.136C162.416 9.088 162.064 7.68 161.36 6.912C160.656 6.08 159.76 5.568 158.672 5.376L156.944 5.088C156.112 4.896 155.696 4.512 155.696 3.936C155.696 3.232 156.176 2.88 157.136 2.88H170.864C171.824 2.88 172.304 3.232 172.304 3.936C172.304 4.64 171.888 5.024 171.056 5.088L169.808 5.27999C168.144 5.536 166.992 6.08 166.352 6.912C165.712 7.68 165.392 9.088 165.392 11.136V69.792C165.392 70.944 165.168 71.744 164.72 72.192C164.336 72.64 163.824 72.864 163.184 72.864ZM188.628 72.864C184.66 72.864 181.524 71.232 179.22 67.968C176.916 64.64 175.764 60.16 175.764 54.528C175.764 50.368 176.436 46.368 177.78 42.528C179.124 38.688 180.884 35.264 183.06 32.256C185.3 29.248 187.764 26.88 190.452 25.152C193.204 23.36 195.956 22.464 198.708 22.464C202.676 22.464 205.812 24.096 208.116 27.36C210.42 30.624 211.572 35.104 211.572 40.8C211.572 44.96 210.9 48.96 209.556 52.8C208.212 56.64 206.42 60.064 204.18 63.072C202.004 66.08 199.54 68.48 196.788 70.272C194.1 72 191.38 72.864 188.628 72.864ZM188.436 70.56C190.484 70.56 192.468 69.568 194.388 67.584C196.372 65.6 198.164 62.976 199.764 59.712C201.364 56.448 202.644 52.832 203.604 48.864C204.564 44.832 205.044 40.8 205.044 36.768C205.044 28.768 202.964 24.768 198.804 24.768C196.82 24.768 194.836 25.76 192.852 27.744C190.868 29.664 189.076 32.256 187.476 35.52C185.94 38.784 184.692 42.432 183.732 46.464C182.772 50.432 182.292 54.432 182.292 58.464C182.292 66.528 184.34 70.56 188.436 70.56ZM226.746 72.864C224.122 72.864 222.106 71.84 220.698 69.792C219.29 67.744 219.034 64.96 219.93 61.44L227.61 32.448C228.442 29.44 227.93 27.936 226.074 27.936C224.73 27.936 223.386 28.896 222.042 30.816C220.762 32.736 219.354 35.872 217.818 40.224C217.562 40.992 217.114 41.376 216.474 41.376C216.154 41.376 215.898 41.248 215.706 40.992C215.514 40.672 215.482 40.288 215.61 39.84C219.322 28.256 223.962 22.464 229.53 22.464C231.706 22.464 233.178 23.36 233.946 25.152C234.714 26.944 234.682 29.408 233.85 32.544L225.786 63.168C225.21 65.344 225.178 66.944 225.69 67.968C226.202 68.992 226.97 69.504 227.994 69.504C231.13 69.504 234.618 65.664 238.458 57.984C242.362 50.24 245.786 38.944 248.73 24.096C248.922 23.392 249.37 23.04 250.074 23.04H253.818C254.714 23.04 255.066 23.456 254.874 24.288L247.194 63.168C246.746 65.28 246.778 66.88 247.29 67.968C247.866 68.992 248.762 69.504 249.978 69.504C251.834 69.504 253.722 68.608 255.642 66.816C257.562 65.024 259.29 62.688 260.826 59.808C262.426 56.928 263.706 53.76 264.666 50.304C265.626 46.848 266.106 43.456 266.106 40.128C266.106 37.44 265.882 35.328 265.434 33.792C265.05 32.192 264.634 30.848 264.186 29.76C263.738 28.672 263.514 27.488 263.514 26.208C263.514 23.712 264.602 22.464 266.778 22.464C268.314 22.464 269.306 23.328 269.754 25.056C270.202 26.72 270.426 29.248 270.426 32.64C270.426 37.504 269.818 42.336 268.602 47.136C267.45 51.872 265.85 56.192 263.802 60.096C261.818 63.936 259.514 67.04 256.89 69.408C254.33 71.712 251.61 72.864 248.73 72.864C245.978 72.864 243.866 71.808 242.394 69.696C240.922 67.52 240.602 64.384 241.434 60.288C241.562 59.84 241.466 59.584 241.146 59.52C240.89 59.456 240.666 59.616 240.474 60C238.682 63.584 236.666 66.624 234.426 69.12C232.186 71.616 229.626 72.864 226.746 72.864Z" fill="black"/>
<path d="M293.406 32.064C292.19 32.064 291.262 31.68 290.622 30.912C289.982 30.144 289.662 29.28 289.662 28.32C289.662 27.296 289.854 26.368 290.238 25.536C290.686 24.64 291.134 23.648 291.582 22.56C292.094 21.408 292.446 20.032 292.638 18.432C292.702 18.048 292.606 17.824 292.35 17.76C292.158 17.632 291.902 17.696 291.582 17.952C289.662 19.552 288.318 21.024 287.55 22.368C286.846 23.712 285.854 24.736 284.574 25.44C283.742 25.888 282.846 26.048 281.886 25.92C280.926 25.728 280.126 25.12 279.486 24.096C278.91 23.008 278.782 21.984 279.102 21.024C279.422 20.064 279.998 19.36 280.83 18.912C281.726 18.4 282.654 18.112 283.614 18.048C284.638 17.984 285.726 17.888 286.878 17.76C288.094 17.632 289.438 17.248 290.91 16.608C291.294 16.48 291.486 16.288 291.486 16.032C291.486 15.776 291.294 15.584 290.91 15.456C289.438 14.752 288.094 14.368 286.878 14.304C285.726 14.176 284.638 14.08 283.614 14.016C282.654 13.952 281.726 13.664 280.83 13.152C279.998 12.64 279.422 11.904 279.102 10.944C278.782 9.984 278.91 8.992 279.486 7.96799C280.126 6.944 280.926 6.336 281.886 6.144C282.846 5.952 283.742 6.112 284.574 6.62399C285.47 7.136 286.206 7.808 286.782 8.64C287.358 9.408 287.998 10.272 288.702 11.232C289.406 12.192 290.398 13.184 291.678 14.208C291.998 14.464 292.254 14.528 292.446 14.4C292.638 14.272 292.702 14.016 292.638 13.632C292.446 11.968 292.094 10.592 291.582 9.504C291.134 8.416 290.686 7.424 290.238 6.528C289.854 5.632 289.662 4.704 289.662 3.744C289.662 2.784 289.982 1.92 290.622 1.152C291.262 0.383995 292.19 -5.72205e-06 293.406 -5.72205e-06C294.622 -5.72205e-06 295.55 0.383995 296.19 1.152C296.83 1.92 297.15 2.784 297.15 3.744C297.15 4.704 296.926 5.632 296.478 6.528C296.094 7.424 295.646 8.416 295.134 9.504C294.686 10.592 294.366 11.968 294.174 13.632C294.11 14.016 294.174 14.272 294.366 14.4C294.622 14.528 294.878 14.464 295.134 14.208C296.478 13.184 297.47 12.192 298.11 11.232C298.814 10.272 299.454 9.408 300.03 8.64C300.606 7.808 301.342 7.136 302.238 6.62399C303.07 6.112 303.966 5.952 304.926 6.144C305.886 6.336 306.686 6.944 307.326 7.96799C307.902 8.992 308.03 9.984 307.71 10.944C307.39 11.904 306.814 12.64 305.982 13.152C305.086 13.664 304.126 13.952 303.102 14.016C302.142 14.08 301.054 14.176 299.838 14.304C298.686 14.368 297.374 14.752 295.902 15.456C295.518 15.584 295.326 15.776 295.326 16.032C295.326 16.288 295.518 16.48 295.902 16.608C297.374 17.248 298.686 17.632 299.838 17.76C301.054 17.888 302.142 17.984 303.102 18.048C304.126 18.112 305.086 18.4 305.982 18.912C306.814 19.36 307.39 20.064 307.71 21.024C308.03 21.984 307.902 23.008 307.326 24.096C306.686 25.12 305.886 25.728 304.926 25.92C303.966 26.048 303.07 25.888 302.238 25.44C301.022 24.736 300.03 23.712 299.262 22.368C298.494 21.024 297.15 19.552 295.23 17.952C294.974 17.696 294.718 17.632 294.462 17.76C294.206 17.824 294.11 18.048 294.174 18.432C294.366 20.032 294.686 21.408 295.134 22.56C295.646 23.648 296.094 24.64 296.478 25.536C296.926 26.368 297.15 27.296 297.15 28.32C297.15 29.28 296.83 30.144 296.19 30.912C295.55 31.68 294.622 32.064 293.406 32.064Z" fill="#1D0BE3"/>
</svg>
